<svg xmlns="http://www.w3.org/2000/svg" width="220" height="64" viewBox="0 0 220 64" role="img" aria-label="RedSec Learn">
  <svg x="0" y="0" width="64" height="64" viewBox="0 0 1333.3333 1333.3333">
    <defs>
      <clipPath clipPathUnits="userSpaceOnUse" id="redsec-dark-clip">
        <path d="M0,1000H1000V0H0Z"/>
      </clipPath>
    </defs>
    <g transform="matrix(1.3333333,0,0,-1.3333333,0,1333.3333)">
      <g clip-path="url(#redsec-dark-clip)">
        <path transform="translate(614.7236,622.46)" fill="#991b1b" d="m0,0c-0.909,-45.4-26.02,-84.86-62.949,-106v-0.01c-18.28,-10.47-39.45,-16.45-62.021,-16.45h-72.83l-157.11,272.12c13.1,-13.63 31.52,-22.12 51.92,-22.12h176.54C-56.18,127.54 1.41,70.25 0,0"/>
        <path transform="translate(736.2041,125)" fill="#b91c1c" d="m0,0h-88.92c-8.57,0-16.49,4.57-20.78,12L-247.11,250.01-319.28,375h72.83c22.57,0 43.74,5.98 62.02,16.45L-122.38,283.98 20.79,36C30.03,20 18.479,0 0,0"/>
        <path transform="translate(416.9341,750)" fill="#fca5a5" d="m0,0h-105.2c-20.4,0-38.82,8.49-51.92,22.12l-0.01,0.01-8.04,13.94c-13.74,23.81-5.58,54.25 18.22,68l22.04,12.72c23.81,13.75 54.25,5.59 68,-18.22z"/>
        <path transform="translate(739.7441,626.0098)" fill="#ef4444" d="m0,0c0.37,-92.33-50.73,-173.43-125.92,-217.029-36.86,-21.381-79.52,-33.731-124.73,-33.971-0.45,-0.01-0.91,-0.01-1.37,-0.01H-351c-13.25,0-23.99,-10.74-23.99,-23.99v-201.93c0,-13.299-10.79,-24.08-24.08,-24.08h-76.84c-13.3,0-24.08,10.79-24.08,24.09v278.91c0,39.77 32.23,72 72,72h178c22.57,0 43.74,5.98 62.02,16.45v0.01c36.93,21.14 62.04,60.6 62.949,106 1.411,70.25-56.179,127.54-126.449,127.54h-176.54c-20.4,0-38.82,8.49-51.92,22.12l-0.01,0.01c-12.42,12.94-20.05,30.5-20.05,49.85v28.94c0,13.3 10.78,24.08 24.08,24.08h225.92C-112.26,248.99-0.54,137.61 0,0"/>
      </g>
    </g>
  </svg>
  <text x="76" y="40" fill="#f8fafc" font-family="Inter, Segoe UI, Arial, sans-serif" font-size="30" font-weight="800">RedSec</text>
  <text x="77" y="56" fill="#fca5a5" font-family="Inter, Segoe UI, Arial, sans-serif" font-size="13" font-weight="700" letter-spacing="1.6">LEARN</text>
</svg>
